<?xml version="1.0" encoding="utf-8"?>
<!-- Generator: Adobe Illustrator 27.3.1, SVG Export Plug-In . SVG Version: 6.00 Build 0)  -->
<svg version="1.1" id="Layer_1" xmlns="http://www.w3.org/2000/svg" xmlns:xlink="http://www.w3.org/1999/xlink" x="0px" y="0px"
	 viewBox="0 0 86.9 88.2" style="enable-background:new 0 0 86.9 88.2;" xml:space="preserve">
<g>
	<path d="M43.5,2.1c-23.2,0-42,18.8-42,42s18.8,42,42,42s42-18.8,42-42S66.7,2.1,43.5,2.1z M42,52.8c-0.1,1.7-0.6,3.1-1.4,4.3
		c-0.8,1.2-1.8,2.1-3,2.8S35,60.9,33.5,61c-1.5,0.1-3-0.1-4.5-0.5c-0.5-0.2-1-0.3-1.4-0.5c-0.5-0.2-0.9-0.2-1.3-0.2
		c-0.4,0-0.8,0.1-1.1,0.3c-0.3,0.2-0.6,0.5-0.8,1c-0.1,0.2-0.2,0.3-0.4,0.2c-0.2,0-0.2-0.2-0.2-0.3l0.1-7.2c0-0.2,0.2-0.2,0.3-0.2
		c0.2,0,0.3,0.1,0.3,0.3c0.2,1.4,0.7,2.6,1.4,3.5c0.7,1,1.5,1.6,2.4,1.9c1.1,0.4,2.1,0.5,3.1,0.3c1-0.2,1.8-0.5,2.6-1s1.4-1.2,1.8-2
		c0.5-0.8,0.8-1.7,1-2.6c0.2-1.4,0.1-2.6-0.3-3.7c-0.4-1-1.1-1.9-1.9-2.7c-0.9-0.8-1.8-1.6-2.9-2.2c-1.1-0.7-2.2-1.4-3.2-2.1
		c-1-0.7-2-1.6-2.8-2.4c-0.8-0.9-1.4-1.9-1.8-3.1c-0.4-1.3-0.4-2.6-0.1-3.8c0.3-1.3,0.9-2.4,1.7-3.4c0.8-1,1.9-1.8,3.1-2.3
		c1.3-0.6,2.6-0.8,4.1-0.8c0.5,0,1.1,0.1,1.6,0.2c0.5,0.1,1,0.3,1.5,0.5c0.4,0.2,0.8,0.3,1.1,0.5c0.3,0.1,0.6,0.2,0.9,0.2
		c0.3,0,0.5-0.1,0.8-0.3c0.3-0.2,0.5-0.6,0.7-1.1c0.1-0.2,0.2-0.3,0.4-0.2c0.2,0,0.2,0.1,0.2,0.3l-0.1,7.2c0,0.2-0.2,0.2-0.3,0.2
		c-0.2,0-0.3-0.1-0.3-0.3c-0.1-0.9-0.4-1.8-0.7-2.5c-0.3-0.7-0.7-1.4-1.2-1.9c-0.5-0.5-1-0.9-1.6-1.2c-0.6-0.3-1.2-0.4-1.8-0.4
		c-1.2,0-2.2,0.3-3,0.9c-0.8,0.5-1.4,1.2-1.8,2.1S28.4,33,28.4,34c0.1,1,0.4,1.9,1,2.8c0.5,0.7,1.1,1.4,2,2.1
		c0.8,0.6,1.7,1.3,2.7,1.9c1,0.6,1.9,1.3,2.9,2c1,0.7,1.8,1.5,2.6,2.5c0.8,0.9,1.4,2,1.8,3.2C41.9,49.7,42.1,51.1,42,52.8z
		 M62.8,50.3c-0.4,2-1,3.8-1.9,5.4c-0.8,1.6-1.9,2.8-3.1,3.8c-1.3,1-2.7,1.4-4.4,1.4H43c-0.1,0-0.2-0.1-0.2-0.2
		c0-0.1,0.1-0.2,0.2-0.2c0.6,0,1-0.3,1.3-0.7c0.2-0.5,0.3-0.9,0.3-1.5V30c0-0.5-0.1-1-0.3-1.4c-0.2-0.5-0.7-0.7-1.3-0.7
		c-0.1,0-0.2-0.1-0.2-0.2s0.1-0.2,0.2-0.2h11.5c1.5,0,2.8,0.5,3.9,1.4c1.1,1,2,2.2,2.8,3.8c0.8,1.6,1.3,3.3,1.7,5.4
		c0.4,2,0.5,4,0.5,6.1C63.5,46.3,63.2,48.3,62.8,50.3z"/>
	<path d="M56.5,33.4c-0.5-1.5-1.1-2.7-1.8-3.5c-0.7-0.9-1.5-1.3-2.4-1.3h-2.5l0,31.3h1.7c1.1,0,2-0.4,2.8-1.3c0.8-0.9,1.4-2.1,2-3.5
		c0.5-1.5,0.9-3.1,1.2-5c0.3-1.9,0.4-3.8,0.4-5.8c0-2-0.1-3.9-0.3-5.8C57.3,36.6,56.9,34.9,56.5,33.4z"/>
</g>
</svg>
