<?xml version="1.0" encoding="utf-8"?>
<!-- Generator: Adobe Illustrator 27.3.1, SVG Export Plug-In . SVG Version: 6.00 Build 0)  -->
<svg version="1.1" id="Layer_1" xmlns="http://www.w3.org/2000/svg" xmlns:xlink="http://www.w3.org/1999/xlink" x="0px" y="0px"
	 viewBox="0 0 86.9 88.2" style="enable-background:new 0 0 86.9 88.2;" xml:space="preserve">
<g>
	<path d="M52.6,37.4C42.5,36.6,38.6,55.8,50,56C60.8,56.8,64.4,36.4,52.6,37.4z"/>
	<path d="M43.5,2c-55.3,0.9-55.3,83.3,0,84.2C98.8,85.2,98.8,2.9,43.5,2z M27.2,44.6c6.4,1.5,8.4,3.4,8.4,6.9
		C36.4,61,14.3,61.6,15,50.9h3.3c2.1,12,25.1,0.6,7.5-3.6c-12.6-1.9-9.3-13,1.2-12.9c8.4,0,9.7,5.1,9.7,7.2h-3.3
		C31.8,31.8,10.6,40.6,27.2,44.6z M61.8,51.6c-0.5,2.2-0.9,4.4-1.4,6.6h-3.1c0.1-0.7,0.3-2,0.6-3.5c-4.5,7.6-19.6,4.4-18.3-6.2
		C38.4,37,56,28.8,61.2,39.1l3.3-15.5h3.2L61.8,51.6z"/>
</g>
</svg>
